<mxfile host="Electron" modified="2023-04-15T15:43:44.401Z" agent="Mozilla/5.0 (Macintosh; Intel Mac OS X 10_15_7) AppleWebKit/537.36 (KHTML, like Gecko) draw.io/21.1.2 Chrome/106.0.5249.199 Electron/21.4.3 Safari/537.36" etag="AsHMzT38djNl6BFxwmXG" version="21.1.2" type="device" pages="2">
  <diagram name="Overview" id="fZxvlP8URf7Da7e91xO-">
    <mxGraphModel dx="1143" dy="729" grid="1" gridSize="10" guides="1" tooltips="1" connect="1" arrows="1" fold="1" page="1" pageScale="1" pageWidth="827" pageHeight="1169" math="0" shadow="0">
      <root>
        <mxCell id="0" />
        <mxCell id="1" parent="0" />
        <mxCell id="xjVbjWH6JzId5MujHkEE-3" value="&lt;b&gt;Air CO2ntrol 5000&lt;/b&gt;&lt;br&gt;&lt;br&gt;(temp, humidity, co2)" style="rounded=0;whiteSpace=wrap;html=1;" parent="1" vertex="1">
          <mxGeometry x="80" y="160" width="200" height="120" as="geometry" />
        </mxCell>
        <mxCell id="xjVbjWH6JzId5MujHkEE-5" value="&lt;font&gt;Micro SD Slot&lt;/font&gt;" style="rounded=0;whiteSpace=wrap;html=1;horizontal=0;fontColor=#030303;" parent="1" vertex="1">
          <mxGeometry x="260" y="170" width="40" height="100" as="geometry" />
        </mxCell>
        <mxCell id="xjVbjWH6JzId5MujHkEE-6" value="" style="rounded=0;whiteSpace=wrap;html=1;" parent="1" vertex="1">
          <mxGeometry x="300" y="180" width="460" height="80" as="geometry" />
        </mxCell>
        <mxCell id="xjVbjWH6JzId5MujHkEE-9" value="" style="shape=partialRectangle;whiteSpace=wrap;html=1;bottom=1;right=1;left=1;top=0;fillColor=default;routingCenterX=-0.5;" parent="1" vertex="1">
          <mxGeometry x="660" y="259" width="100" height="100" as="geometry" />
        </mxCell>
        <mxCell id="xjVbjWH6JzId5MujHkEE-10" value="&lt;font&gt;SD Card Adapter&lt;br&gt;&lt;br&gt;&lt;br&gt;&lt;br&gt;&lt;/font&gt;" style="rounded=0;whiteSpace=wrap;html=1;horizontal=1;verticalAlign=middle;fontColor=#030303;" parent="1" vertex="1">
          <mxGeometry x="640" y="300" width="140" height="170" as="geometry" />
        </mxCell>
        <mxCell id="xjVbjWH6JzId5MujHkEE-11" value="FYSETC SD Card&amp;nbsp;&lt;br&gt;(ESP8255)" style="rounded=0;whiteSpace=wrap;html=1;" parent="1" vertex="1">
          <mxGeometry x="650" y="400" width="120" height="140" as="geometry" />
        </mxCell>
        <mxCell id="xjVbjWH6JzId5MujHkEE-12" value="Micro SD Card" style="rounded=0;whiteSpace=wrap;html=1;" parent="1" vertex="1">
          <mxGeometry x="710" y="500" width="46" height="60" as="geometry" />
        </mxCell>
        <mxCell id="xjVbjWH6JzId5MujHkEE-13" value="Micro USB Port" style="rounded=0;whiteSpace=wrap;html=1;" parent="1" vertex="1">
          <mxGeometry x="610" y="490" width="60" height="40" as="geometry" />
        </mxCell>
        <mxCell id="xjVbjWH6JzId5MujHkEE-14" value="" style="rounded=0;whiteSpace=wrap;html=1;" parent="1" vertex="1">
          <mxGeometry x="520" y="500" width="90" height="20" as="geometry" />
        </mxCell>
        <mxCell id="xjVbjWH6JzId5MujHkEE-15" value="USB A -&amp;gt; USB C Adapter" style="rounded=0;whiteSpace=wrap;html=1;" parent="1" vertex="1">
          <mxGeometry x="400" y="480" width="120" height="60" as="geometry" />
        </mxCell>
        <mxCell id="xjVbjWH6JzId5MujHkEE-17" value="" style="rounded=0;whiteSpace=wrap;html=1;" parent="1" vertex="1">
          <mxGeometry x="320" y="500" width="80" height="20" as="geometry" />
        </mxCell>
        <mxCell id="xjVbjWH6JzId5MujHkEE-18" value="Raspberry Pi&lt;br&gt;&lt;br&gt;&lt;br&gt;&lt;br&gt;&lt;br&gt;&lt;br&gt;&lt;br&gt;" style="rounded=0;whiteSpace=wrap;html=1;" parent="1" vertex="1">
          <mxGeometry x="160" y="400" width="170" height="160" as="geometry" />
        </mxCell>
        <mxCell id="xjVbjWH6JzId5MujHkEE-28" value="&lt;h1&gt;Overview of solution&lt;/h1&gt;&lt;p&gt;Beautiful image of the mess how the solution works.&lt;/p&gt;" style="text;html=1;strokeColor=none;fillColor=none;spacing=5;spacingTop=-20;whiteSpace=wrap;overflow=hidden;rounded=0;" parent="1" vertex="1">
          <mxGeometry x="80" y="30" width="260" height="120" as="geometry" />
        </mxCell>
        <mxCell id="qcCFeCnxJ1L1Lx12frLp-3" style="edgeStyle=orthogonalEdgeStyle;rounded=0;orthogonalLoop=1;jettySize=auto;html=1;entryX=0;entryY=0.5;entryDx=0;entryDy=0;" parent="1" source="qcCFeCnxJ1L1Lx12frLp-1" target="qcCFeCnxJ1L1Lx12frLp-2" edge="1">
          <mxGeometry relative="1" as="geometry" />
        </mxCell>
        <mxCell id="qcCFeCnxJ1L1Lx12frLp-1" value="Open serial at port 9600" style="rounded=0;whiteSpace=wrap;html=1;" parent="1" vertex="1">
          <mxGeometry x="80" y="1320" width="160" height="80" as="geometry" />
        </mxCell>
        <mxCell id="qcCFeCnxJ1L1Lx12frLp-6" value="" style="edgeStyle=orthogonalEdgeStyle;rounded=0;orthogonalLoop=1;jettySize=auto;html=1;" parent="1" source="qcCFeCnxJ1L1Lx12frLp-2" target="qcCFeCnxJ1L1Lx12frLp-5" edge="1">
          <mxGeometry relative="1" as="geometry" />
        </mxCell>
        <mxCell id="qcCFeCnxJ1L1Lx12frLp-2" value="Add interrupt to MOSI pin FALLING state" style="rounded=0;whiteSpace=wrap;html=1;" parent="1" vertex="1">
          <mxGeometry x="320" y="1320" width="160" height="80" as="geometry" />
        </mxCell>
        <mxCell id="qcCFeCnxJ1L1Lx12frLp-8" style="edgeStyle=orthogonalEdgeStyle;rounded=0;orthogonalLoop=1;jettySize=auto;html=1;" parent="1" source="qcCFeCnxJ1L1Lx12frLp-5" target="qcCFeCnxJ1L1Lx12frLp-7" edge="1">
          <mxGeometry relative="1" as="geometry">
            <Array as="points">
              <mxPoint x="640" y="1440" />
              <mxPoint x="160" y="1440" />
            </Array>
          </mxGeometry>
        </mxCell>
        <mxCell id="qcCFeCnxJ1L1Lx12frLp-5" value="Wait for MOSI pin FALLING" style="rounded=0;whiteSpace=wrap;html=1;" parent="1" vertex="1">
          <mxGeometry x="560" y="1320" width="160" height="80" as="geometry" />
        </mxCell>
        <mxCell id="qcCFeCnxJ1L1Lx12frLp-14" value="" style="edgeStyle=orthogonalEdgeStyle;rounded=0;orthogonalLoop=1;jettySize=auto;html=1;" parent="1" source="qcCFeCnxJ1L1Lx12frLp-7" target="qcCFeCnxJ1L1Lx12frLp-9" edge="1">
          <mxGeometry relative="1" as="geometry" />
        </mxCell>
        <mxCell id="qcCFeCnxJ1L1Lx12frLp-7" value="Wait 1 second" style="rounded=0;whiteSpace=wrap;html=1;" parent="1" vertex="1">
          <mxGeometry x="80" y="1480" width="160" height="80" as="geometry" />
        </mxCell>
        <mxCell id="qcCFeCnxJ1L1Lx12frLp-15" value="" style="edgeStyle=orthogonalEdgeStyle;rounded=0;orthogonalLoop=1;jettySize=auto;html=1;" parent="1" source="qcCFeCnxJ1L1Lx12frLp-9" target="qcCFeCnxJ1L1Lx12frLp-10" edge="1">
          <mxGeometry relative="1" as="geometry" />
        </mxCell>
        <mxCell id="qcCFeCnxJ1L1Lx12frLp-9" value="Initialise SD Card" style="rounded=0;whiteSpace=wrap;html=1;" parent="1" vertex="1">
          <mxGeometry x="320" y="1480" width="160" height="80" as="geometry" />
        </mxCell>
        <mxCell id="qcCFeCnxJ1L1Lx12frLp-16" style="edgeStyle=orthogonalEdgeStyle;rounded=0;orthogonalLoop=1;jettySize=auto;html=1;entryX=0.5;entryY=0;entryDx=0;entryDy=0;" parent="1" source="qcCFeCnxJ1L1Lx12frLp-10" target="qcCFeCnxJ1L1Lx12frLp-11" edge="1">
          <mxGeometry relative="1" as="geometry">
            <Array as="points">
              <mxPoint x="640" y="1600" />
              <mxPoint x="160" y="1600" />
            </Array>
          </mxGeometry>
        </mxCell>
        <mxCell id="qcCFeCnxJ1L1Lx12frLp-10" value="Get file name by last modified datetime&amp;nbsp;" style="rounded=0;whiteSpace=wrap;html=1;" parent="1" vertex="1">
          <mxGeometry x="560" y="1480" width="160" height="80" as="geometry" />
        </mxCell>
        <mxCell id="qcCFeCnxJ1L1Lx12frLp-17" value="" style="edgeStyle=orthogonalEdgeStyle;rounded=0;orthogonalLoop=1;jettySize=auto;html=1;" parent="1" source="qcCFeCnxJ1L1Lx12frLp-11" target="qcCFeCnxJ1L1Lx12frLp-12" edge="1">
          <mxGeometry relative="1" as="geometry" />
        </mxCell>
        <mxCell id="qcCFeCnxJ1L1Lx12frLp-11" value="Read second line of the file" style="rounded=0;whiteSpace=wrap;html=1;" parent="1" vertex="1">
          <mxGeometry x="80" y="1640" width="160" height="80" as="geometry" />
        </mxCell>
        <mxCell id="qcCFeCnxJ1L1Lx12frLp-18" value="" style="edgeStyle=orthogonalEdgeStyle;rounded=0;orthogonalLoop=1;jettySize=auto;html=1;" parent="1" source="qcCFeCnxJ1L1Lx12frLp-12" target="qcCFeCnxJ1L1Lx12frLp-13" edge="1">
          <mxGeometry relative="1" as="geometry" />
        </mxCell>
        <mxCell id="qcCFeCnxJ1L1Lx12frLp-12" value="Delete file" style="rounded=0;whiteSpace=wrap;html=1;" parent="1" vertex="1">
          <mxGeometry x="320" y="1640" width="160" height="80" as="geometry" />
        </mxCell>
        <mxCell id="qcCFeCnxJ1L1Lx12frLp-19" style="edgeStyle=orthogonalEdgeStyle;rounded=0;orthogonalLoop=1;jettySize=auto;html=1;entryX=1;entryY=0.5;entryDx=0;entryDy=0;" parent="1" source="qcCFeCnxJ1L1Lx12frLp-13" target="qcCFeCnxJ1L1Lx12frLp-5" edge="1">
          <mxGeometry relative="1" as="geometry">
            <Array as="points">
              <mxPoint x="780" y="1680" />
              <mxPoint x="780" y="1360" />
            </Array>
          </mxGeometry>
        </mxCell>
        <mxCell id="qcCFeCnxJ1L1Lx12frLp-13" value="Print data to serial" style="rounded=0;whiteSpace=wrap;html=1;" parent="1" vertex="1">
          <mxGeometry x="560" y="1640" width="160" height="80" as="geometry" />
        </mxCell>
        <mxCell id="qcCFeCnxJ1L1Lx12frLp-20" value="&lt;h1&gt;ESP8255 Firmware (c++)&lt;/h1&gt;&lt;p&gt;Code running in the FYSETC SD Card microcontroller, which is responsive for reading data from SD card and passing it forward.&lt;/p&gt;" style="text;html=1;strokeColor=none;fillColor=none;spacing=5;spacingTop=-20;whiteSpace=wrap;overflow=hidden;rounded=0;" parent="1" vertex="1">
          <mxGeometry x="80" y="1190" width="300" height="120" as="geometry" />
        </mxCell>
        <mxCell id="qcCFeCnxJ1L1Lx12frLp-21" value="&lt;h1&gt;Data parser (python)&lt;/h1&gt;&lt;p&gt;Python script running at host that parser data and transforms it into readable format for other integrations..&lt;/p&gt;" style="text;html=1;strokeColor=none;fillColor=none;spacing=5;spacingTop=-20;whiteSpace=wrap;overflow=hidden;rounded=0;" parent="1" vertex="1">
          <mxGeometry x="80" y="1760" width="290" height="120" as="geometry" />
        </mxCell>
        <mxCell id="qcCFeCnxJ1L1Lx12frLp-25" style="edgeStyle=orthogonalEdgeStyle;rounded=0;orthogonalLoop=1;jettySize=auto;html=1;entryX=0;entryY=0.5;entryDx=0;entryDy=0;" parent="1" source="qcCFeCnxJ1L1Lx12frLp-23" target="qcCFeCnxJ1L1Lx12frLp-24" edge="1">
          <mxGeometry relative="1" as="geometry" />
        </mxCell>
        <mxCell id="qcCFeCnxJ1L1Lx12frLp-23" value="Listen to serial port 9600" style="rounded=0;whiteSpace=wrap;html=1;" parent="1" vertex="1">
          <mxGeometry x="80" y="1880" width="160" height="80" as="geometry" />
        </mxCell>
        <mxCell id="qcCFeCnxJ1L1Lx12frLp-28" style="edgeStyle=orthogonalEdgeStyle;rounded=0;orthogonalLoop=1;jettySize=auto;html=1;" parent="1" source="qcCFeCnxJ1L1Lx12frLp-24" target="qcCFeCnxJ1L1Lx12frLp-27" edge="1">
          <mxGeometry relative="1" as="geometry" />
        </mxCell>
        <mxCell id="qcCFeCnxJ1L1Lx12frLp-24" value="Wait for new data" style="rounded=0;whiteSpace=wrap;html=1;" parent="1" vertex="1">
          <mxGeometry x="320" y="1880" width="160" height="80" as="geometry" />
        </mxCell>
        <mxCell id="qcCFeCnxJ1L1Lx12frLp-27" value="Try to parse data" style="rounded=0;whiteSpace=wrap;html=1;" parent="1" vertex="1">
          <mxGeometry x="560" y="1880" width="160" height="80" as="geometry" />
        </mxCell>
        <mxCell id="qcCFeCnxJ1L1Lx12frLp-31" style="edgeStyle=orthogonalEdgeStyle;rounded=0;orthogonalLoop=1;jettySize=auto;html=1;entryX=0.5;entryY=1;entryDx=0;entryDy=0;jumpStyle=none;" parent="1" source="qcCFeCnxJ1L1Lx12frLp-29" target="qcCFeCnxJ1L1Lx12frLp-24" edge="1">
          <mxGeometry relative="1" as="geometry">
            <Array as="points">
              <mxPoint x="400" y="2080" />
            </Array>
          </mxGeometry>
        </mxCell>
        <mxCell id="qcCFeCnxJ1L1Lx12frLp-29" value="Save data to JSON file at web/ folder" style="rounded=0;whiteSpace=wrap;html=1;" parent="1" vertex="1">
          <mxGeometry x="80" y="2040" width="160" height="80" as="geometry" />
        </mxCell>
        <mxCell id="qcCFeCnxJ1L1Lx12frLp-30" style="edgeStyle=orthogonalEdgeStyle;rounded=0;orthogonalLoop=1;jettySize=auto;html=1;entryX=0.5;entryY=0;entryDx=0;entryDy=0;jumpStyle=arc;" parent="1" source="qcCFeCnxJ1L1Lx12frLp-27" target="qcCFeCnxJ1L1Lx12frLp-29" edge="1">
          <mxGeometry relative="1" as="geometry">
            <Array as="points">
              <mxPoint x="640" y="2000" />
              <mxPoint x="160" y="2000" />
            </Array>
          </mxGeometry>
        </mxCell>
        <mxCell id="qcCFeCnxJ1L1Lx12frLp-33" value="&lt;h1&gt;Demo integration (html + js)&lt;/h1&gt;&lt;p&gt;Simple HTTP server running at host that just shows the data and history.&lt;/p&gt;" style="text;html=1;strokeColor=none;fillColor=none;spacing=5;spacingTop=-20;whiteSpace=wrap;overflow=hidden;rounded=0;" parent="1" vertex="1">
          <mxGeometry x="80" y="2160" width="360" height="100" as="geometry" />
        </mxCell>
        <mxCell id="qcCFeCnxJ1L1Lx12frLp-36" style="edgeStyle=orthogonalEdgeStyle;rounded=0;orthogonalLoop=1;jettySize=auto;html=1;entryX=0;entryY=0.5;entryDx=0;entryDy=0;" parent="1" source="qcCFeCnxJ1L1Lx12frLp-34" target="qcCFeCnxJ1L1Lx12frLp-35" edge="1">
          <mxGeometry relative="1" as="geometry">
            <mxPoint x="310" y="2300" as="targetPoint" />
          </mxGeometry>
        </mxCell>
        <mxCell id="qcCFeCnxJ1L1Lx12frLp-34" value="Server web/&amp;nbsp; at localhost:8000" style="rounded=0;whiteSpace=wrap;html=1;" parent="1" vertex="1">
          <mxGeometry x="80" y="2260" width="160" height="80" as="geometry" />
        </mxCell>
        <mxCell id="qcCFeCnxJ1L1Lx12frLp-38" style="edgeStyle=orthogonalEdgeStyle;rounded=0;orthogonalLoop=1;jettySize=auto;html=1;entryX=0;entryY=0.5;entryDx=0;entryDy=0;" parent="1" source="qcCFeCnxJ1L1Lx12frLp-35" target="qcCFeCnxJ1L1Lx12frLp-37" edge="1">
          <mxGeometry relative="1" as="geometry" />
        </mxCell>
        <mxCell id="qcCFeCnxJ1L1Lx12frLp-35" value="Fetch /data.json file" style="rounded=0;whiteSpace=wrap;html=1;" parent="1" vertex="1">
          <mxGeometry x="320" y="2260" width="160" height="80" as="geometry" />
        </mxCell>
        <mxCell id="qcCFeCnxJ1L1Lx12frLp-37" value="Add measurements to&lt;br&gt;html table" style="rounded=0;whiteSpace=wrap;html=1;" parent="1" vertex="1">
          <mxGeometry x="560" y="2260" width="160" height="80" as="geometry" />
        </mxCell>
        <mxCell id="qcCFeCnxJ1L1Lx12frLp-41" style="edgeStyle=orthogonalEdgeStyle;rounded=0;orthogonalLoop=1;jettySize=auto;html=1;entryX=0.5;entryY=1;entryDx=0;entryDy=0;" parent="1" source="qcCFeCnxJ1L1Lx12frLp-39" target="qcCFeCnxJ1L1Lx12frLp-35" edge="1">
          <mxGeometry relative="1" as="geometry" />
        </mxCell>
        <mxCell id="qcCFeCnxJ1L1Lx12frLp-39" value="Wait 5 seconds" style="rounded=0;whiteSpace=wrap;html=1;" parent="1" vertex="1">
          <mxGeometry x="80" y="2420" width="160" height="80" as="geometry" />
        </mxCell>
        <mxCell id="qcCFeCnxJ1L1Lx12frLp-40" style="edgeStyle=orthogonalEdgeStyle;rounded=0;orthogonalLoop=1;jettySize=auto;html=1;entryX=0.5;entryY=0;entryDx=0;entryDy=0;jumpStyle=arc;" parent="1" source="qcCFeCnxJ1L1Lx12frLp-37" target="qcCFeCnxJ1L1Lx12frLp-39" edge="1">
          <mxGeometry relative="1" as="geometry">
            <mxPoint x="250" y="2410" as="targetPoint" />
            <Array as="points">
              <mxPoint x="640" y="2380" />
              <mxPoint x="160" y="2380" />
            </Array>
          </mxGeometry>
        </mxCell>
        <mxCell id="zUSMiL3VZw2tUGRwjvXk-2" value="Second Raspberry Pi" style="rounded=0;whiteSpace=wrap;html=1;" vertex="1" parent="1">
          <mxGeometry x="160" y="680" width="170" height="60" as="geometry" />
        </mxCell>
        <mxCell id="zUSMiL3VZw2tUGRwjvXk-15" style="edgeStyle=orthogonalEdgeStyle;rounded=0;orthogonalLoop=1;jettySize=auto;html=1;entryX=0.5;entryY=0;entryDx=0;entryDy=0;" edge="1" parent="1" source="zUSMiL3VZw2tUGRwjvXk-3" target="zUSMiL3VZw2tUGRwjvXk-6">
          <mxGeometry relative="1" as="geometry">
            <Array as="points">
              <mxPoint x="290" y="470" />
            </Array>
          </mxGeometry>
        </mxCell>
        <mxCell id="zUSMiL3VZw2tUGRwjvXk-17" style="edgeStyle=orthogonalEdgeStyle;rounded=0;orthogonalLoop=1;jettySize=auto;html=1;entryX=0.5;entryY=0;entryDx=0;entryDy=0;" edge="1" parent="1" source="zUSMiL3VZw2tUGRwjvXk-3" target="zUSMiL3VZw2tUGRwjvXk-4">
          <mxGeometry relative="1" as="geometry">
            <Array as="points">
              <mxPoint x="190" y="470" />
            </Array>
          </mxGeometry>
        </mxCell>
        <mxCell id="zUSMiL3VZw2tUGRwjvXk-21" style="edgeStyle=orthogonalEdgeStyle;rounded=0;orthogonalLoop=1;jettySize=auto;html=1;entryX=0.5;entryY=0;entryDx=0;entryDy=0;" edge="1" parent="1" source="zUSMiL3VZw2tUGRwjvXk-3" target="zUSMiL3VZw2tUGRwjvXk-5">
          <mxGeometry relative="1" as="geometry" />
        </mxCell>
        <mxCell id="zUSMiL3VZw2tUGRwjvXk-3" value="Python script" style="rounded=0;whiteSpace=wrap;html=1;" vertex="1" parent="1">
          <mxGeometry x="202.5" y="455" width="75" height="30" as="geometry" />
        </mxCell>
        <mxCell id="zUSMiL3VZw2tUGRwjvXk-41" style="edgeStyle=orthogonalEdgeStyle;rounded=0;orthogonalLoop=1;jettySize=auto;html=1;entryX=0.143;entryY=0;entryDx=0;entryDy=0;entryPerimeter=0;" edge="1" parent="1" source="zUSMiL3VZw2tUGRwjvXk-4" target="zUSMiL3VZw2tUGRwjvXk-14">
          <mxGeometry relative="1" as="geometry" />
        </mxCell>
        <mxCell id="zUSMiL3VZw2tUGRwjvXk-4" value="temp" style="rounded=0;whiteSpace=wrap;html=1;" vertex="1" parent="1">
          <mxGeometry x="170" y="510" width="40" height="20" as="geometry" />
        </mxCell>
        <mxCell id="zUSMiL3VZw2tUGRwjvXk-12" style="edgeStyle=orthogonalEdgeStyle;rounded=0;orthogonalLoop=1;jettySize=auto;html=1;" edge="1" parent="1" source="zUSMiL3VZw2tUGRwjvXk-5">
          <mxGeometry relative="1" as="geometry">
            <mxPoint x="240" y="550" as="targetPoint" />
          </mxGeometry>
        </mxCell>
        <mxCell id="zUSMiL3VZw2tUGRwjvXk-5" value="humidity" style="rounded=0;whiteSpace=wrap;html=1;" vertex="1" parent="1">
          <mxGeometry x="210" y="510" width="60" height="20" as="geometry" />
        </mxCell>
        <mxCell id="zUSMiL3VZw2tUGRwjvXk-18" style="edgeStyle=orthogonalEdgeStyle;rounded=0;orthogonalLoop=1;jettySize=auto;html=1;entryX=0.863;entryY=-0.034;entryDx=0;entryDy=0;entryPerimeter=0;" edge="1" parent="1" source="zUSMiL3VZw2tUGRwjvXk-6" target="zUSMiL3VZw2tUGRwjvXk-14">
          <mxGeometry relative="1" as="geometry" />
        </mxCell>
        <mxCell id="zUSMiL3VZw2tUGRwjvXk-6" value="co2" style="rounded=0;whiteSpace=wrap;html=1;" vertex="1" parent="1">
          <mxGeometry x="270" y="510" width="40" height="20" as="geometry" />
        </mxCell>
        <mxCell id="zUSMiL3VZw2tUGRwjvXk-10" value="Home assistant" style="rounded=0;whiteSpace=wrap;html=1;" vertex="1" parent="1">
          <mxGeometry x="180" y="670" width="130" height="20" as="geometry" />
        </mxCell>
        <mxCell id="zUSMiL3VZw2tUGRwjvXk-22" style="edgeStyle=orthogonalEdgeStyle;rounded=0;orthogonalLoop=1;jettySize=auto;html=1;entryX=0.457;entryY=-0.086;entryDx=0;entryDy=0;entryPerimeter=0;" edge="1" parent="1" source="zUSMiL3VZw2tUGRwjvXk-14" target="zUSMiL3VZw2tUGRwjvXk-10">
          <mxGeometry relative="1" as="geometry" />
        </mxCell>
        <mxCell id="zUSMiL3VZw2tUGRwjvXk-45" value="access&lt;br&gt;over&lt;br&gt;network" style="edgeLabel;html=1;align=center;verticalAlign=middle;resizable=0;points=[];" vertex="1" connectable="0" parent="zUSMiL3VZw2tUGRwjvXk-22">
          <mxGeometry x="-0.0934" y="-1" relative="1" as="geometry">
            <mxPoint as="offset" />
          </mxGeometry>
        </mxCell>
        <mxCell id="zUSMiL3VZw2tUGRwjvXk-14" value="nginx /sensor/&amp;lt;type&amp;gt;" style="rounded=0;whiteSpace=wrap;html=1;" vertex="1" parent="1">
          <mxGeometry x="170" y="550" width="140" height="25" as="geometry" />
        </mxCell>
        <mxCell id="zUSMiL3VZw2tUGRwjvXk-35" value="" style="strokeWidth=1;html=1;shape=mxgraph.flowchart.annotation_2;align=left;labelPosition=right;pointerEvents=1;rotation=-180;" vertex="1" parent="1">
          <mxGeometry x="330" y="660" width="50" height="100" as="geometry" />
        </mxCell>
        <mxCell id="zUSMiL3VZw2tUGRwjvXk-36" value="Accessible in home network,&lt;br&gt;automations, logging etc." style="text;html=1;strokeColor=none;fillColor=none;align=left;verticalAlign=middle;whiteSpace=wrap;rounded=0;" vertex="1" parent="1">
          <mxGeometry x="390" y="695" width="90" height="30" as="geometry" />
        </mxCell>
        <mxCell id="zUSMiL3VZw2tUGRwjvXk-39" value="" style="strokeWidth=1;html=1;shape=mxgraph.flowchart.annotation_2;align=left;labelPosition=right;pointerEvents=1;rotation=0;" vertex="1" parent="1">
          <mxGeometry x="120" y="460" width="20" height="80" as="geometry" />
        </mxCell>
        <mxCell id="zUSMiL3VZw2tUGRwjvXk-40" value="Parse serial into three files" style="text;html=1;strokeColor=none;fillColor=none;align=right;verticalAlign=middle;whiteSpace=wrap;rounded=0;" vertex="1" parent="1">
          <mxGeometry x="50" y="480" width="60" height="30" as="geometry" />
        </mxCell>
        <mxCell id="zUSMiL3VZw2tUGRwjvXk-42" value="" style="strokeWidth=1;html=1;shape=mxgraph.flowchart.annotation_2;align=left;labelPosition=right;pointerEvents=1;rotation=-90;" vertex="1" parent="1">
          <mxGeometry x="690" y="490" width="50" height="160" as="geometry" />
        </mxCell>
        <mxCell id="zUSMiL3VZw2tUGRwjvXk-43" value="Reprogrammed microcontroller to read latest measurements, write it to serial and then empty the CSV file&lt;br&gt;(every 30 seconds)" style="text;html=1;strokeColor=none;fillColor=none;align=left;verticalAlign=middle;whiteSpace=wrap;rounded=0;" vertex="1" parent="1">
          <mxGeometry x="630" y="620" width="170" height="30" as="geometry" />
        </mxCell>
      </root>
    </mxGraphModel>
  </diagram>
  <diagram id="JAzhZsy2MUZGcYZ5Rvtm" name="BPMN">
    <mxGraphModel dx="1251" dy="908" grid="1" gridSize="10" guides="1" tooltips="1" connect="1" arrows="1" fold="1" page="1" pageScale="1" pageWidth="827" pageHeight="1169" math="0" shadow="0">
      <root>
        <mxCell id="0" />
        <mxCell id="1" parent="0" />
      </root>
    </mxGraphModel>
  </diagram>
</mxfile>
